{"title":"Aladdin in Hindi - Episode 43 - A Clockwork Hero(vickpirate)","uid":8131241,"size":273759475,"categoryP":"video","categoryS":"movie_clips","magnet":"?xt=urn:btih:25c4bc10ce32df56697686c122a1b3dfe55b0bac&amp;dn=Aladdin+in+Hindi+-+Episode+43+-+A+Clockwork+Hero%28vickpirate%29&amp;tr=udp%3A%2F%2Ftracker.openbittorrent.com%3A80&amp;tr=udp%3A%2F%2Fopen.demonii.com%3A1337&amp;tr=udp%3A%2F%2Ftracker.coppersurfer.tk%3A6969&amp;tr=udp%3A%2F%2Fexodus.desync.com%3A6969","seeders":1,"leechers":0,"uploader":"pornopono","files":1,"time":1360607434,"description":"General\nAladdin in Hindi - Episode 43 - A Clockwork Hero(vickpirate).mkv\nFormat                                   : Matroska\nFormat version                           : Version 4 / Version 2\nFile size                                : 261 MiB\nDuration                                 : 20mn 44s\nOverall bit rate                         : 1 760 Kbps\nEncoded date                             : UTC 2013-02-10 20:38:34\nWriting application                      : mkvmerge v6.0.0 ('Coming Up For Air') built on Jan 20 2013 09:52:00\nWriting library                          : Lavf52.94.0\n\nVideo\nID                                       : 1\nFormat                                   : AVC\nFormat/Info                              : Advanced Video Codec\nFormat profile                           : &lt;a class=&quot;__cf_email__&quot; href=&quot;/cdn-cgi/l/email-protection&quot; data-cfemail=&quot;a9e4c8c0c7e9e59a8799&quot;&gt;[email&amp;#160;protected]&lt;/a&gt;&lt;script cf-hash='f9e31' type=&quot;text/javascript&quot;&gt;\n/* &lt;![CDATA[ */!function(){try{var t=&quot;currentScript&quot;in document?document.currentScript:function(){for(var t=document.getElementsByTagName(&quot;script&quot;),e=t.length;e--;)if(t[e].getAttribute(&quot;cf-hash&quot;))return t[e]}();if(t&amp;&amp;t.previousSibling){var e,r,n,i,c=t.previousSibling,a=c.getAttribute(&quot;data-cfemail&quot;);if(a){for(e=&quot;&quot;,r=parseInt(a.substr(0,2),16),n=2;a.length-n;n+=2)i=parseInt(a.substr(n,2),16)^r,e+=String.fromCharCode(i);e=document.createTextNode(e),c.parentNode.replaceChild(e,c)}}}catch(u){}}();/* ]]&gt; */&lt;/script&gt;\nFormat settings, CABAC                   : Yes\nFormat settings, ReFrames                : 2 frames\nCodec ID                                 : V_MPEG4/ISO/AVC\nDuration                                 : 20mn 44s\nBit rate                                 : 1 587 Kbps\nWidth                                    : 576 pixels\nHeight                                   : 416 pixels\nDisplay aspect ratio                     : 1.385\nFrame rate mode                          : Constant\nFrame rate                               : 29.970 fps\nColor space                              : YUV\nChroma subsampling                       : 4:2:0\nBit depth                                : 8 bits\nScan type                                : Progressive\nBits/(Pixel*Frame)                       : 0.221\nStream size                              : 227 MiB (87%)\n\nDefault                                  : Yes\nForced                                   : No\n\nAudio\nID                                       : 2\nFormat                                   : MPEG Audio\nFormat version                           : Version 1\nFormat profile                           : Layer 3\nMode                                     : Joint stereo\nMode extension                           : MS Stereo\nCodec ID                                 : A_MPEG/L3\nCodec ID/Hint                            : MP3\nDuration                                 : 20mn 44s\nBit rate mode                            : Constant\nBit rate                                 : 192 Kbps\nChannel(s)                               : 2 channels\nSampling rate                            : 48.0 KHz\nCompression mode                         : Lossy\nDelay relative to video                  : 29s 0ms\nStream size                              : 28.5 MiB (11%)\nWriting library                          : LAME3.98.4\nDefault                                  : Yes\nForced                                   : No\n[/b]\n\n\nscreens:-\n &lt;a href=&quot;\nhttp://postimage.org/image/nxy4dp62b/&quot; rel=&quot;nofollow&quot; target=&quot;_NEW&quot;&gt;\nhttp://postimage.org/image/nxy4dp62b/&lt;/a&gt; &lt;a href=&quot;\nhttp://postimage.org/image/6lxrs9ckz/&quot; rel=&quot;nofollow&quot; target=&quot;_NEW&quot;&gt;\nhttp://postimage.org/image/6lxrs9ckz/&lt;/a&gt; &lt;a href=&quot;\nhttp://postimage.org/image/6agbfhw4z/&quot; rel=&quot;nofollow&quot; target=&quot;_NEW&quot;&gt;\nhttp://postimage.org/image/6agbfhw4z/&lt;/a&gt; &lt;a href=&quot;\nhttp://postimage.org/image/drpiuplo3/&quot; rel=&quot;nofollow&quot; target=&quot;_NEW&quot;&gt;\nhttp://postimage.org/image/drpiuplo3/&lt;/a&gt; &lt;a href=&quot;\nhttp://postimage.org/image/llq4g3tgz/&quot; rel=&quot;nofollow&quot; target=&quot;_NEW&quot;&gt;\nhttp://postimage.org/image/llq4g3tgz/&lt;/a&gt; &lt;a href=&quot;\nhttp://postimage.org/image/cfcf6kdmb/&quot; rel=&quot;nofollow&quot; target=&quot;_NEW&quot;&gt;\nhttp://postimage.org/image/cfcf6kdmb/&lt;/a&gt; &lt;a href=&quot;\nhttp://postimage.org/image/5dehkda0j/&quot; rel=&quot;nofollow&quot; target=&quot;_NEW&quot;&gt;\nhttp://postimage.org/image/5dehkda0j/&lt;/a&gt; &lt;a href=&quot;\nhttp://postimage.org/image/xesiy2far/&quot; rel=&quot;nofollow&quot; target=&quot;_NEW&quot;&gt;\nhttp://postimage.org/image/xesiy2far/&lt;/a&gt; &lt;a href=&quot;\nhttp://postimage.org/image/z7vfme0hf/&quot; rel=&quot;nofollow&quot; target=&quot;_NEW&quot;&gt;\nhttp://postimage.org/image/z7vfme0hf/&lt;/a&gt; &lt;a href=&quot;\nhttp://postimage.org/image/54gwufx83/&quot; rel=&quot;nofollow&quot; target=&quot;_NEW&quot;&gt;\nhttp://postimage.org/image/54gwufx83/&lt;/a&gt; &lt;a href=&quot;\nhttp://postimage.org/image/w3krpljoz/&quot; rel=&quot;nofollow&quot; target=&quot;_NEW&quot;&gt;\nhttp://postimage.org/image/w3krpljoz/&lt;/a&gt;\n\n","torrent":{"xt":"urn:btih:25c4bc10ce32df56697686c122a1b3dfe55b0bac","amp;dn":"Aladdin+in+Hindi+-+Episode+43+-+A+Clockwork+Hero%28vickpirate%29","amp;tr":["udp%3A%2F%2Ftracker.openbittorrent.com%3A80","udp%3A%2F%2Fopen.demonii.com%3A1337","udp%3A%2F%2Ftracker.coppersurfer.tk%3A6969","udp%3A%2F%2Fexodus.desync.com%3A6969"],"infoHash":"25c4bc10ce32df56697686c122a1b3dfe55b0bac","infoHashBuffer":{"type":"Buffer","data":[37,196,188,16,206,50,223,86,105,118,134,193,34,161,179,223,229,91,11,172]},"announce":[],"urlList":[]}}